<mxfile host="app.diagrams.net" agent="Mozilla/5.0 (Windows NT 10.0; Win64; x64) AppleWebKit/537.36 (KHTML, like Gecko) Chrome/130.0.0.0 Safari/537.36 Edg/130.0.0.0" version="24.8.3">
  <diagram name="Page-1" id="Pke53z23x1tzq548-MCu">
    <mxGraphModel dx="1245" dy="709" grid="0" gridSize="10" guides="1" tooltips="1" connect="1" arrows="1" fold="1" page="0" pageScale="1" pageWidth="850" pageHeight="1100" math="0" shadow="0">
      <root>
        <mxCell id="0" />
        <mxCell id="1" parent="0" />
        <mxCell id="Dyft-aRGL0ZKKXDoQaCU-1" value="" style="whiteSpace=wrap;html=1;aspect=fixed;fillColor=#ffe6cc;strokeColor=#d79b00;" vertex="1" parent="1">
          <mxGeometry x="2" y="79" width="604" height="604" as="geometry" />
        </mxCell>
        <mxCell id="Dyft-aRGL0ZKKXDoQaCU-2" value="AWS CLOUD (EUROPE LONDON)" style="rounded=1;whiteSpace=wrap;html=1;" vertex="1" parent="1">
          <mxGeometry x="14" y="108" width="229" height="38" as="geometry" />
        </mxCell>
        <mxCell id="Dyft-aRGL0ZKKXDoQaCU-3" value="" style="whiteSpace=wrap;html=1;aspect=fixed;fillColor=#e1d5e7;strokeColor=#9673a6;verticalAlign=top;" vertex="1" parent="1">
          <mxGeometry x="18" y="229" width="384" height="384" as="geometry" />
        </mxCell>
        <mxCell id="Dyft-aRGL0ZKKXDoQaCU-4" value="&lt;font style=&quot;font-size: 20px;&quot;&gt;VPC(10.0.0.0/16)&lt;/font&gt;" style="rounded=1;whiteSpace=wrap;html=1;align=center;" vertex="1" parent="1">
          <mxGeometry x="37" y="253" width="199" height="54" as="geometry" />
        </mxCell>
        <mxCell id="Dyft-aRGL0ZKKXDoQaCU-5" value="" style="whiteSpace=wrap;html=1;aspect=fixed;fillColor=#f8cecc;strokeColor=#b85450;" vertex="1" parent="1">
          <mxGeometry x="88" y="341" width="233.5" height="233.5" as="geometry" />
        </mxCell>
        <mxCell id="Dyft-aRGL0ZKKXDoQaCU-6" value="PUBLIC SUBNET(10.0.0.0/24)" style="rounded=1;whiteSpace=wrap;html=1;" vertex="1" parent="1">
          <mxGeometry x="97" y="439.75" width="171" height="36" as="geometry" />
        </mxCell>
        <mxCell id="Dyft-aRGL0ZKKXDoQaCU-7" value="&lt;font style=&quot;font-size: 19px;&quot;&gt;1&lt;/font&gt;" style="ellipse;whiteSpace=wrap;html=1;aspect=fixed;" vertex="1" parent="1">
          <mxGeometry x="256" y="106.5" width="41" height="41" as="geometry" />
        </mxCell>
        <mxCell id="Dyft-aRGL0ZKKXDoQaCU-8" value="&lt;span style=&quot;font-size: 19px;&quot;&gt;2&lt;/span&gt;" style="ellipse;whiteSpace=wrap;html=1;aspect=fixed;" vertex="1" parent="1">
          <mxGeometry x="250" y="257" width="41" height="41" as="geometry" />
        </mxCell>
        <mxCell id="Dyft-aRGL0ZKKXDoQaCU-9" value="&lt;span style=&quot;font-size: 19px;&quot;&gt;3&lt;/span&gt;" style="ellipse;whiteSpace=wrap;html=1;aspect=fixed;" vertex="1" parent="1">
          <mxGeometry x="280" y="439.75" width="35.5" height="35.5" as="geometry" />
        </mxCell>
        <mxCell id="Dyft-aRGL0ZKKXDoQaCU-10" value="" style="whiteSpace=wrap;html=1;aspect=fixed;fillColor=#ea5d5d;strokeColor=#36393d;" vertex="1" parent="1">
          <mxGeometry x="415.01" y="378" width="170.75" height="170.75" as="geometry" />
        </mxCell>
        <mxCell id="Dyft-aRGL0ZKKXDoQaCU-11" value="INTERNET&amp;nbsp;&lt;div&gt;GATEWAY&lt;/div&gt;" style="rounded=1;whiteSpace=wrap;html=1;" vertex="1" parent="1">
          <mxGeometry x="430.5" y="457" width="152" height="51" as="geometry" />
        </mxCell>
        <mxCell id="Dyft-aRGL0ZKKXDoQaCU-12" value="&lt;span style=&quot;font-size: 19px;&quot;&gt;4&lt;/span&gt;" style="ellipse;whiteSpace=wrap;html=1;aspect=fixed;" vertex="1" parent="1">
          <mxGeometry x="486" y="403" width="41" height="41" as="geometry" />
        </mxCell>
        <mxCell id="Dyft-aRGL0ZKKXDoQaCU-16" value="" style="endArrow=none;html=1;rounded=0;fontSize=12;startSize=8;endSize=8;curved=1;entryX=0;entryY=0.5;entryDx=0;entryDy=0;exitX=1.003;exitY=0.569;exitDx=0;exitDy=0;exitPerimeter=0;" edge="1" parent="1" source="Dyft-aRGL0ZKKXDoQaCU-3" target="Dyft-aRGL0ZKKXDoQaCU-10">
          <mxGeometry width="50" height="50" relative="1" as="geometry">
            <mxPoint x="293" y="321" as="sourcePoint" />
            <mxPoint x="343" y="271" as="targetPoint" />
          </mxGeometry>
        </mxCell>
        <mxCell id="Dyft-aRGL0ZKKXDoQaCU-18" value="" style="endArrow=classic;html=1;rounded=0;fontSize=12;startSize=8;endSize=8;curved=1;entryX=0.5;entryY=0;entryDx=0;entryDy=0;exitX=0.999;exitY=0.284;exitDx=0;exitDy=0;exitPerimeter=0;strokeColor=#000000;" edge="1" parent="1" source="Dyft-aRGL0ZKKXDoQaCU-3" target="Dyft-aRGL0ZKKXDoQaCU-10">
          <mxGeometry width="50" height="50" relative="1" as="geometry">
            <mxPoint x="299" y="321" as="sourcePoint" />
            <mxPoint x="343" y="271" as="targetPoint" />
          </mxGeometry>
        </mxCell>
      </root>
    </mxGraphModel>
  </diagram>
</mxfile>
